<?xml version="1.0" encoding="utf-8"?>
<!-- Generator: Adobe Illustrator 16.0.0, SVG Export Plug-In . SVG Version: 6.00 Build 0)  -->
<!DOCTYPE svg PUBLIC "-//W3C//DTD SVG 1.1//EN" "http://www.w3.org/Graphics/SVG/1.1/DTD/svg11.dtd">
<svg version="1.1" id="图层_1" xmlns="http://www.w3.org/2000/svg" xmlns:xlink="http://www.w3.org/1999/xlink" x="0px" y="0px"
	 width="32px" height="32px" viewBox="0 0 32 32" enable-background="new 0 0 32 32" xml:space="preserve">
<g>
	<g>
		<path fill-rule="evenodd" clip-rule="evenodd" fill="#FDFDFD" d="M16.048,32.064c-5.291,0-10.581-0.001-15.872,0.003
			c-0.12,0-0.147-0.027-0.147-0.147c0.003-10.581,0.003-21.162,0-31.744c0-0.12,0.027-0.147,0.147-0.147
			c10.582,0.003,21.163,0.003,31.744,0c0.12,0,0.147,0.027,0.147,0.147c-0.004,10.582-0.004,21.163,0,31.744
			c0,0.12-0.027,0.147-0.147,0.147C26.63,32.063,21.339,32.064,16.048,32.064z"/>
		<path fill-rule="evenodd" clip-rule="evenodd" fill="#4DD495" d="M21.186,25.725c-1.177,0.651-2.433,1.071-3.76,1.283
			c-0.813,0.131-1.634,0.169-2.454,0.12c-2.258-0.136-4.317-0.855-6.142-2.196c-2.301-1.689-3.792-3.933-4.462-6.709
			c-0.326-1.349-0.392-2.717-0.214-4.095c0.341-2.647,1.46-4.916,3.354-6.79c1.74-1.722,3.826-2.804,6.249-3.178
			c3.529-0.544,6.686,0.33,9.41,2.642c2.101,1.782,3.401,4.06,3.858,6.776c0.569,3.388-0.222,6.459-2.327,9.181
			c-0.068,0.089-0.011,0.093,0.035,0.119c0.788,0.446,1.629,0.736,2.525,0.866c0.254,0.036,0.508,0.064,0.764,0.067
			c0.07,0,0.109,0.016,0.108,0.098c-0.005,0.692-0.007,1.386-0.01,2.078c-0.023,0.001-0.036-0.01-0.038-0.033
			c-0.004-0.694,0.002-1.389-0.002-1.936c0,0.538,0,1.224,0,1.909c0,0.018-0.002,0.036-0.006,0.054
			c-0.066,0.063-0.15,0.048-0.228,0.043c-1.259-0.075-2.463-0.363-3.604-0.91c-1.045-0.501-1.97-1.168-2.771-2.002
			c-0.545-0.567-1.011-1.197-1.397-1.883c-0.276-0.489-0.602-0.944-0.967-1.37c-0.868-1.014-1.902-1.816-3.109-2.388
			c-0.898-0.425-1.84-0.7-2.828-0.827c-0.627-0.08-1.256-0.086-1.882-0.047c-0.822,0.051-1.625,0.223-2.403,0.501
			c-0.343,0.123-0.344,0.116-0.414-0.234c-0.127-0.638-0.107-1.282-0.095-1.926c0.001-0.051-0.002-0.11,0.066-0.13
			c0.067,0.035,0.133,0.02,0.201-0.001c0.798-0.241,1.612-0.393,2.445-0.454c1.917-0.143,3.76,0.154,5.524,0.92
			c1.127,0.49,2.15,1.146,3.072,1.962c0.706,0.625,1.322,1.328,1.863,2.098c0.047,0.066,0.105,0.119,0.16,0.178
			c0.309,0.579,0.628,1.15,1.062,1.648c0.201,0.229,0.2,0.233,0.382-0.015c0.982-1.334,1.579-2.82,1.771-4.468
			c0.162-1.393,0.03-2.758-0.417-4.085c-0.414-1.228-1.058-2.323-1.93-3.287c-1.244-1.375-2.767-2.291-4.548-2.781
			c-0.546-0.15-1.104-0.232-1.669-0.278c-0.927-0.075-1.842-0.011-2.749,0.188c-1.046,0.229-2.023,0.632-2.932,1.198
			c-0.669,0.417-1.28,0.906-1.82,1.479c-1.01,1.072-1.74,2.311-2.177,3.722c-0.336,1.083-0.456,2.193-0.392,3.318
			c0.065,1.126,0.332,2.21,0.796,3.244c0.406,0.903,0.94,1.722,1.601,2.455c0.661,0.733,1.424,1.348,2.281,1.842
			c1.039,0.598,2.151,0.988,3.338,1.147c1.744,0.235,3.434,0.026,5.053-0.681c0.13-0.057,0.211-0.044,0.304,0.063
			c0.437,0.506,0.926,0.957,1.446,1.375C21.149,25.628,21.196,25.659,21.186,25.725z"/>
		<path fill-rule="evenodd" clip-rule="evenodd" fill="#37607A" d="M8.438,14.823c-0.05,0.251-0.037,0.509-0.036,0.761
			c0.001,0.477,0.037,0.955,0.139,1.425c0.026,0.12,0.06,0.149,0.177,0.105c0.714-0.272,1.454-0.45,2.212-0.53
			c0.736-0.077,1.474-0.073,2.211,0.016c1.15,0.138,2.234,0.482,3.254,1.024c1.095,0.582,2.031,1.358,2.831,2.307
			c0.498,0.591,0.851,1.274,1.28,1.908c1.17,1.721,2.739,2.93,4.7,3.625c0.781,0.276,1.586,0.448,2.415,0.492
			c0.148,0.008,0.297,0.022,0.445,0.034c0.038,0.045,0.029,0.1,0.029,0.152c0.001,0.619,0.001,1.239,0,1.859
			c0,0.052,0.009,0.106-0.031,0.151c-0.903-0.009-1.792-0.14-2.666-0.364c-1.503-0.388-2.871-1.057-4.106-1.997
			c-0.033-0.025-0.071-0.046-0.106-0.068c-0.241-0.226-0.502-0.427-0.746-0.648c-0.302-0.273-0.573-0.572-0.848-0.869
			c-0.054-0.059-0.09-0.067-0.159-0.035c-0.795,0.362-1.628,0.604-2.491,0.715c-1.75,0.228-3.446,0.017-5.071-0.694
			c-1.229-0.537-2.298-1.302-3.195-2.294c-1.229-1.36-2.005-2.945-2.313-4.759c-0.123-0.719-0.159-1.441-0.114-2.164
			c0.1-1.574,0.567-3.036,1.406-4.375c1.019-1.626,2.409-2.831,4.155-3.619c0.873-0.394,1.789-0.64,2.744-0.746
			c1.963-0.219,3.814,0.137,5.554,1.068c0.659,0.353,1.263,0.788,1.82,1.289c0.969,0.872,1.718,1.902,2.262,3.083
			c0.369,0.802,0.608,1.643,0.743,2.516c0.1,0.646,0.122,1.295,0.085,1.943c-0.063,1.125-0.324,2.206-0.782,3.238
			c-0.3,0.675-0.674,1.306-1.12,1.893c-0.158,0.208-0.153,0.208-0.309,0.003c-0.141-0.185-0.305-0.354-0.431-0.547
			c-0.234-0.358-0.449-0.73-0.669-1.098c-0.016-0.025-0.01-0.063-0.015-0.094c-0.026-0.065,0.015-0.112,0.045-0.161
			c0.581-0.936,0.935-1.948,1.041-3.044c0.135-1.391-0.083-2.724-0.717-3.974c-0.674-1.329-1.665-2.359-2.974-3.082
			c-0.805-0.444-1.662-0.727-2.571-0.83c-1.334-0.151-2.623,0.026-3.854,0.587c-0.886,0.404-1.662,0.959-2.317,1.674
			c-0.987,1.079-1.595,2.345-1.822,3.793C8.505,14.604,8.523,14.728,8.438,14.823z"/>
		<path fill-rule="evenodd" clip-rule="evenodd" fill="#24506E" d="M28.064,28.154c0.001-0.721,0.001-1.442,0.002-2.163l-0.003-0.01
			c0.011-0.013,0.021-0.013,0.031,0.002c0.008,0.005,0.017,0.007,0.025,0.004c0.002,0.696,0.004,1.392,0.007,2.088
			C28.127,28.116,28.135,28.166,28.064,28.154z"/>
		<path fill-rule="evenodd" clip-rule="evenodd" fill="#FEFEFE" d="M8.438,14.823c0.354-3.106,2.51-5.579,5.546-6.289
			c4.03-0.942,7.864,1.629,8.703,5.468c0.424,1.936,0.101,3.756-0.947,5.444c-0.017,0.027-0.031,0.055-0.048,0.083
			c-0.093-0.031-0.138-0.111-0.189-0.184c-1.7-2.401-3.971-3.977-6.831-4.671c-2.035-0.493-4.063-0.417-6.071,0.185
			C8.552,14.874,8.459,14.974,8.438,14.823z"/>
		<path fill-rule="evenodd" clip-rule="evenodd" fill="#3CD08B" d="M28.095,25.983l-0.016,0.001l-0.016-0.003
			c0-0.654,0-1.308,0.001-1.962c0-0.062,0.015-0.131-0.097-0.171c0.154-0.011,0.127,0.08,0.127,0.142
			C28.096,24.655,28.095,25.319,28.095,25.983z"/>
		<path fill-rule="evenodd" clip-rule="evenodd" fill="#FEFEFE" d="M12.25,18.692c2.381,0.087,4.451,1.211,5.897,3.45
			c0.112,0.175,0.109,0.177-0.093,0.249c-3.22,1.15-6.838-0.14-8.61-3.065c-0.076-0.125-0.048-0.154,0.077-0.199
			C10.317,18.842,11.137,18.704,12.25,18.692z"/>
	</g>
</g>
</svg>
